<svg width="277" height="131" viewBox="0 0 277 131" fill="none" xmlns="http://www.w3.org/2000/svg">
<line x1="0.998779" y1="106.57" x2="276.999" y2="106.57" stroke="#FFFC00" stroke-width="12"/>
<line x1="0.998779" y1="88.5702" x2="276.999" y2="88.5702" stroke="#C7D0D9" stroke-width="12"/>
<line x1="0.998779" y1="124.57" x2="276.999" y2="124.57" stroke="#A134F6" stroke-width="12"/>
<path d="M2.708 27.3H41.443C45.0217 27.3 47.909 28.337 50.105 30.411C52.301 32.4443 53.399 35.2097 53.399 38.707C53.399 40.781 52.8907 42.7127 51.874 44.502C50.8573 46.2913 49.4543 47.7147 47.665 48.772C45.8757 49.8293 43.8423 50.358 41.565 50.358L22.96 50.419V70H2.708V27.3ZM25.095 46.881C26.559 46.881 27.901 46.5353 29.121 45.844C30.3817 45.112 31.3577 44.136 32.049 42.916C32.781 41.6553 33.147 40.3133 33.147 38.89C33.147 37.426 32.781 36.084 32.049 34.864C31.3577 33.6033 30.3817 32.607 29.121 31.875C27.901 31.143 26.559 30.777 25.095 30.777H22.96V46.881H25.095ZM56.3809 27.3H77.1209V46.393H90.6019V27.3H111.342V70H90.6019V50.48H77.1209V70H56.3809V27.3ZM143.308 70.305C137.858 70.305 132.938 69.4713 128.546 67.804C124.154 66.1367 120.677 63.6763 118.115 60.423C115.593 57.129 114.333 53.1843 114.333 48.589C114.333 44.0343 115.614 40.1303 118.176 36.877C120.738 33.6237 124.194 31.1633 128.546 29.496C132.938 27.788 137.858 26.934 143.308 26.934C148.716 26.934 153.596 27.788 157.948 29.496C162.34 31.1633 165.796 33.6237 168.318 36.877C170.88 40.1303 172.161 44.0343 172.161 48.589C172.161 53.1843 170.88 57.129 168.318 60.423C165.796 63.6763 162.34 66.1367 157.948 67.804C153.596 69.4713 148.716 70.305 143.308 70.305ZM143.308 66.706C145.016 66.706 146.276 65.9333 147.09 64.388C147.781 63.2087 148.249 61.1143 148.493 58.105C148.615 56.519 148.676 53.347 148.676 48.589C148.676 43.7903 148.574 40.3947 148.371 38.402C148.249 35.962 147.801 34.1117 147.029 32.851C146.215 31.3057 144.975 30.533 143.308 30.533C141.6 30.533 140.319 31.3057 139.465 32.851C138.773 34.071 138.326 35.9213 138.123 38.402C137.96 40.5167 137.879 43.9123 137.879 48.589C137.879 53.8757 137.94 57.0477 138.062 58.105C138.224 60.911 138.672 63.0053 139.404 64.388C140.258 65.9333 141.559 66.706 143.308 66.706ZM175.164 27.3H193.098L210.91 48.65V27.3H214.57V70H200.235L178.885 41.574V70H175.164V27.3ZM246.543 70.305C241.094 70.305 236.173 69.4713 231.781 67.804C227.389 66.1367 223.912 63.6763 221.35 60.423C218.829 57.129 217.568 53.1843 217.568 48.589C217.568 44.0343 218.849 40.1303 221.411 36.877C223.973 33.6237 227.43 31.1633 231.781 29.496C236.173 27.788 241.094 26.934 246.543 26.934C251.952 26.934 256.832 27.788 261.183 29.496C265.575 31.1633 269.032 33.6237 271.553 36.877C274.115 40.1303 275.396 44.0343 275.396 48.589C275.396 53.1843 274.115 57.129 271.553 60.423C269.032 63.6763 265.575 66.1367 261.183 67.804C256.832 69.4713 251.952 70.305 246.543 70.305ZM246.543 66.706C248.251 66.706 249.512 65.9333 250.325 64.388C251.016 63.2087 251.484 61.1143 251.728 58.105C251.85 56.519 251.911 53.347 251.911 48.589C251.911 43.7903 251.809 40.3947 251.606 38.402C251.484 35.962 251.037 34.1117 250.264 32.851C249.451 31.3057 248.21 30.533 246.543 30.533C244.835 30.533 243.554 31.3057 242.7 32.851C242.009 34.071 241.561 35.9213 241.358 38.402C241.195 40.5167 241.114 43.9123 241.114 48.589C241.114 53.8757 241.175 57.0477 241.297 58.105C241.46 60.911 241.907 63.0053 242.639 64.388C243.493 65.9333 244.794 66.706 246.543 66.706Z" fill="white"/>
</svg>
