<svg width="24" height="28" viewBox="0 0 24 28" fill="none" xmlns="http://www.w3.org/2000/svg">
<g clip-path="url(#clip0_28_1090)">
<path d="M12.0055 7.55358C8.59832 7.55358 5.85011 10.3018 5.85011 13.7089C5.85011 17.1161 8.59832 19.8643 12.0055 19.8643C15.4126 19.8643 18.1608 17.1161 18.1608 13.7089C18.1608 10.3018 15.4126 7.55358 12.0055 7.55358ZM12.0055 17.7107C9.80368 17.7107 8.00368 15.9161 8.00368 13.7089C8.00368 11.5018 9.79832 9.70715 12.0055 9.70715C14.2126 9.70715 16.0072 11.5018 16.0072 13.7089C16.0072 15.9161 14.2072 17.7107 12.0055 17.7107ZM19.8483 7.3018C19.8483 8.10001 19.2055 8.73751 18.4126 8.73751C17.6144 8.73751 16.9769 8.09466 16.9769 7.3018C16.9769 6.50894 17.6197 5.86608 18.4126 5.86608C19.2055 5.86608 19.8483 6.50894 19.8483 7.3018ZM23.9251 8.75894C23.834 6.83573 23.3947 5.13216 21.9858 3.72859C20.5822 2.32501 18.8787 1.88573 16.9555 1.7893C14.9733 1.6768 9.03225 1.6768 7.05011 1.7893C5.13225 1.88037 3.42868 2.31966 2.01975 3.72323C0.610826 5.1268 0.176897 6.83037 0.0804687 8.75358C-0.0320312 10.7357 -0.0320312 16.6768 0.0804687 18.6589C0.17154 20.5821 0.610826 22.2857 2.01975 23.6893C3.42868 25.0929 5.12689 25.5321 7.05011 25.6286C9.03225 25.7411 14.9733 25.7411 16.9555 25.6286C18.8787 25.5375 20.5822 25.0982 21.9858 23.6893C23.3894 22.2857 23.8287 20.5821 23.9251 18.6589C24.0376 16.6768 24.0376 10.7411 23.9251 8.75894ZM21.3644 20.7857C20.9465 21.8357 20.1376 22.6446 19.0822 23.0679C17.5019 23.6946 13.7519 23.55 12.0055 23.55C10.259 23.55 6.50368 23.6893 4.92868 23.0679C3.87868 22.65 3.06975 21.8411 2.64654 20.7857C2.01975 19.2054 2.1644 15.4554 2.1644 13.7089C2.1644 11.9625 2.02511 8.20715 2.64654 6.63216C3.0644 5.58216 3.87332 4.77323 4.92868 4.35001C6.50904 3.72323 10.259 3.86787 12.0055 3.86787C13.7519 3.86787 17.5072 3.72859 19.0822 4.35001C20.1322 4.76787 20.9412 5.5768 21.3644 6.63216C21.9912 8.21251 21.8465 11.9625 21.8465 13.7089C21.8465 15.4554 21.9912 19.2107 21.3644 20.7857Z" fill="white"/>
</g>
<defs>
<clipPath id="clip0_28_1090">
<rect width="24" height="27.4286" fill="white"/>
</clipPath>
</defs>
</svg>
