<svg width="24" height="25" viewBox="0 0 24 25" fill="none" xmlns="http://www.w3.org/2000/svg">
<g clip-path="url(#clip0_28_1092)">
<path d="M12 0.387085C5.37581 0.387085 0 5.76289 0 12.3871C0 19.0113 5.37581 24.3871 12 24.3871C18.6242 24.3871 24 19.0113 24 12.3871C24 5.76289 18.6242 0.387085 12 0.387085ZM16.8726 18.0435C16.6694 18.0435 16.5435 17.9806 16.3548 17.8693C13.3355 16.05 9.82258 15.9726 6.35323 16.6839C6.16452 16.7322 5.91774 16.8097 5.77742 16.8097C5.30806 16.8097 5.0129 16.4371 5.0129 16.0451C5.0129 15.5468 5.30806 15.3097 5.67097 15.2322C9.63387 14.3564 13.6839 14.4339 17.1387 16.5C17.4339 16.6887 17.6081 16.8581 17.6081 17.2984C17.6081 17.7387 17.2645 18.0435 16.8726 18.0435ZM18.1742 14.8693C17.9226 14.8693 17.7532 14.7581 17.579 14.6661C14.5548 12.8758 10.0452 12.1548 6.03387 13.2435C5.80161 13.3064 5.67581 13.3693 5.45806 13.3693C4.94032 13.3693 4.51935 12.9484 4.51935 12.4306C4.51935 11.9129 4.77097 11.5693 5.26935 11.429C6.61452 11.0516 7.98871 10.771 10.0016 10.771C13.1419 10.771 16.1758 11.55 18.5661 12.9726C18.9581 13.2048 19.1129 13.5048 19.1129 13.9258C19.1081 14.4484 18.7016 14.8693 18.1742 14.8693ZM19.6742 11.1822C19.4226 11.1822 19.2677 11.1193 19.05 10.9935C15.6048 8.93708 9.44516 8.44354 5.45806 9.55644C5.28387 9.60483 5.06613 9.68225 4.83387 9.68225C4.19516 9.68225 3.70645 9.18386 3.70645 8.54031C3.70645 7.88225 4.1129 7.50967 4.54839 7.38386C6.25161 6.88547 8.15806 6.64838 10.2339 6.64838C13.7661 6.64838 17.4677 7.38386 20.1726 8.96128C20.55 9.17902 20.7968 9.47902 20.7968 10.0548C20.7968 10.7129 20.2645 11.1822 19.6742 11.1822Z" fill="white"/>
</g>
<defs>
<clipPath id="clip0_28_1092">
<rect width="24" height="24.7742" fill="white"/>
</clipPath>
</defs>
</svg>
