<svg width="24" height="22" viewBox="0 0 24 22" fill="none" xmlns="http://www.w3.org/2000/svg">
<path d="M22.9022 5.17012C22.6405 4.1847 21.8694 3.40861 20.8903 3.14524C19.1157 2.66666 11.9999 2.66666 11.9999 2.66666C11.9999 2.66666 4.88403 2.66666 3.10941 3.14524C2.13036 3.40866 1.35928 4.1847 1.09757 5.17012C0.62207 6.95624 0.62207 10.6828 0.62207 10.6828C0.62207 10.6828 0.62207 14.4094 1.09757 16.1955C1.35928 17.1809 2.13036 17.9247 3.10941 18.1881C4.88403 18.6667 11.9999 18.6667 11.9999 18.6667C11.9999 18.6667 19.1157 18.6667 20.8903 18.1881C21.8694 17.9247 22.6405 17.1809 22.9022 16.1955C23.3777 14.4094 23.3777 10.6828 23.3777 10.6828C23.3777 10.6828 23.3777 6.95624 22.9022 5.17012ZM9.67258 14.0663V7.29937L15.62 10.6829L9.67258 14.0663Z" fill="white"/>
</svg>
